<svg width="21" height="16" viewBox="0 0 21 16" fill="none" xmlns="http://www.w3.org/2000/svg">
<path d="M20.4942 1.93666C19.767 2.25566 18.9921 2.46711 18.1842 2.56978C19.0153 2.07355 19.6497 1.29378 19.9479 0.353886C19.173 0.815886 18.3174 1.14222 17.4057 1.32433C16.6699 0.540886 15.6212 0.0556641 14.4772 0.0556641C12.2577 0.0556641 10.4708 1.85722 10.4708 4.06578C10.4708 4.38355 10.4977 4.68911 10.5637 4.98C7.23066 4.81744 4.28144 3.22 2.30022 0.786553C1.95433 1.38666 1.75144 2.07355 1.75144 2.813C1.75144 4.20144 2.46644 5.43222 3.53222 6.14478C2.8881 6.13255 2.25622 5.94555 1.72088 5.651C1.72088 5.66322 1.72088 5.67911 1.72088 5.695C1.72088 7.64322 3.11055 9.26144 4.93288 9.63422C4.60655 9.72344 4.25088 9.76622 3.88177 9.76622C3.6251 9.76622 3.36599 9.75155 3.12277 9.69777C3.64222 11.2854 5.11621 12.4527 6.86888 12.4906C5.50488 13.5576 3.77299 14.2004 1.8981 14.2004C1.56933 14.2004 1.25399 14.1858 0.93866 14.1454C2.71455 15.2907 4.81922 15.9446 7.08888 15.9446C14.4662 15.9446 18.4995 9.83344 18.4995 4.53633C18.4995 4.35911 18.4934 4.188 18.4849 4.01811C19.2805 3.45344 19.9491 2.74822 20.4942 1.93666Z" fill="#333333"/>
</svg>
