<svg width="17" height="16" viewBox="0 0 17 16" fill="none" xmlns="http://www.w3.org/2000/svg">
<path fill-rule="evenodd" clip-rule="evenodd" d="M5.4942 0H11.4942C14.2552 0 16.4942 2.239 16.4942 5V11C16.4942 13.761 14.2552 16 11.4942 16H5.4942C2.7332 16 0.494202 13.761 0.494202 11V5C0.494202 2.239 2.7332 0 5.4942 0ZM11.4942 14.5C13.4242 14.5 14.9942 12.93 14.9942 11V5C14.9942 3.07 13.4242 1.5 11.4942 1.5H5.4942C3.5642 1.5 1.9942 3.07 1.9942 5V11C1.9942 12.93 3.5642 14.5 5.4942 14.5H11.4942Z" fill="#333333"/>
<path fill-rule="evenodd" clip-rule="evenodd" d="M4.4942 8C4.4942 5.791 6.2852 4 8.4942 4C10.7032 4 12.4942 5.791 12.4942 8C12.4942 10.209 10.7032 12 8.4942 12C6.2852 12 4.4942 10.209 4.4942 8ZM5.9942 8C5.9942 9.378 7.1162 10.5 8.4942 10.5C9.8722 10.5 10.9942 9.378 10.9942 8C10.9942 6.621 9.8722 5.5 8.4942 5.5C7.1162 5.5 5.9942 6.621 5.9942 8Z" fill="#333333"/>
<circle cx="12.7942" cy="3.69999" r="0.533" fill="#333333"/>
</svg>
