<svg width="570" height="357" viewBox="0 0 570 357" fill="none" xmlns="http://www.w3.org/2000/svg">
<rect x="100.5" y="1" width="117" height="297" stroke="#ECECEC"/>
<rect x="217.5" y="1" width="117" height="297" stroke="#ECECEC"/>
<rect x="334.5" y="1" width="117" height="297" stroke="#ECECEC"/>
<rect x="451.5" y="1" width="117" height="297" stroke="#ECECEC"/>
<rect x="100.5" y="76" width="469" height="74.25" stroke="#ECECEC"/>
<rect x="100.5" y="151" width="469" height="74.25" stroke="#ECECEC"/>
<g opacity="0.24" clip-path="url(#clip0_5_5513)">
<path d="M551.964 96.7596C560.982 96.7596 560.982 56.5254 570 56.5254V340.5H-61.2536V313.737C-51.4842 313.737 -52.2357 328.538 -43.2178 328.538C-34.1999 328.538 -34.1999 286.507 -25.1819 286.507C-16.1641 286.507 -17.6671 299.44 -7.14612 299.44C3.37476 299.44 0.368774 323.652 10.8896 323.652C21.4106 323.652 19.1561 314.456 28.9255 314.456C38.6949 314.456 36.8162 270.629 46.9613 270.629C57.1064 270.629 54.4762 284.927 64.9971 284.927C75.518 284.927 73.6393 304.613 83.0329 304.613C92.4266 304.613 90.9236 239.232 101.069 239.232C111.214 239.232 110.087 261.864 119.105 261.864C128.122 261.864 126.62 230.179 137.14 230.179C147.661 230.179 145.407 250.44 155.176 250.44C164.946 250.44 163.443 167.601 173.212 167.601C182.981 167.601 181.103 190.663 191.248 190.663C201.393 190.663 198.763 205.895 209.284 205.895C219.805 205.895 217.174 166.379 227.319 166.379C237.465 166.379 234.834 185.778 245.355 185.778C255.876 185.778 253.997 153.806 263.391 153.806C272.785 153.806 271.658 100.352 281.427 100.352C291.196 100.352 289.693 189.801 299.463 189.801C309.232 189.801 308.105 127.151 317.499 127.151C326.892 127.151 325.013 154.596 335.534 154.596C346.055 154.596 343.801 179.24 353.57 179.24C363.34 179.24 362.212 138.431 371.606 138.431C381 138.431 380.248 177.228 389.642 177.228C399.035 177.228 397.908 159.985 407.678 159.985C417.447 159.985 415.944 124.421 425.713 124.421C435.483 124.421 433.98 138.646 443.749 138.646C453.519 138.646 452.767 86.7011 461.785 86.7011C470.803 86.7011 469.3 157.901 479.821 157.901C490.342 157.901 487.712 109.548 497.857 109.548C508.002 109.548 506.499 129.45 515.893 129.45C525.286 129.45 524.535 79.8756 533.928 79.8756C543.322 79.8756 542.946 96.7596 551.964 96.7596Z" fill="url(#paint0_linear_5_5513)"/>
</g>
<g clip-path="url(#clip1_5_5513)">
<path d="M570 56.5254C560.982 56.5254 560.982 96.7596 551.964 96.7596C542.946 96.7596 543.322 79.8756 533.928 79.8756C524.535 79.8756 525.286 129.45 515.893 129.45C506.499 129.45 508.002 109.548 497.857 109.548C487.712 109.548 490.342 157.901 479.821 157.901C469.3 157.901 470.803 86.7011 461.785 86.7011C452.767 86.7011 453.519 138.646 443.749 138.646C433.98 138.646 435.483 124.421 425.713 124.421C415.944 124.421 417.447 159.985 407.678 159.985C397.908 159.985 399.035 177.228 389.642 177.228C380.248 177.228 381 138.431 371.606 138.431C362.212 138.431 363.34 179.24 353.57 179.24C343.801 179.24 346.055 154.596 335.534 154.596C325.013 154.596 326.892 127.151 317.499 127.151C308.105 127.151 309.232 189.801 299.463 189.801C289.693 189.801 291.196 100.352 281.427 100.352C271.658 100.352 272.785 153.806 263.391 153.806C253.997 153.806 255.876 185.778 245.355 185.778C234.834 185.778 237.465 166.379 227.319 166.379C217.174 166.379 219.805 205.895 209.284 205.895C198.763 205.895 201.393 190.663 191.248 190.663C181.103 190.663 182.981 167.601 173.212 167.601C163.443 167.601 164.946 250.44 155.176 250.44C145.407 250.44 147.661 230.179 137.14 230.179C126.619 230.179 128.122 261.864 119.105 261.864C110.087 261.864 111.214 239.232 101.069 239.232C90.9236 239.232 92.4266 304.613 83.0329 304.613C73.6393 304.613 75.518 284.927 64.9971 284.927C54.4762 284.927 57.1065 270.629 46.9613 270.629C36.8162 270.629 38.6949 314.456 28.9255 314.456C19.1561 314.456 21.4105 323.652 10.8896 323.652C0.368755 323.652 3.37477 299.44 -7.14612 299.44C-17.667 299.44 -16.164 286.507 -25.1819 286.507C-34.1999 286.507 -34.1999 328.538 -43.2178 328.538C-52.2357 328.538 -51.4842 313.737 -61.2536 313.737" stroke="#128C76" stroke-width="2"/>
</g>
<rect x="281" y="77.491" width="6" height="6" rx="0.751492" transform="rotate(45 281 77.491)" fill="#F56B8D"/>
<rect x="239" y="42" width="83" height="40" rx="2.25448" fill="#F56B8D"/>
<path d="M261.89 58.968H260.654C260.318 58.968 260.066 58.872 259.898 58.68C259.73 58.496 259.646 58.264 259.646 57.984V57.132C259.166 57.084 258.73 56.956 258.338 56.748C257.946 56.54 257.614 56.256 257.342 55.896C257.07 55.528 256.858 55.088 256.706 54.576C256.562 54.056 256.49 53.468 256.49 52.812C256.49 52.108 256.574 51.488 256.742 50.952C256.91 50.416 257.146 49.964 257.45 49.596C257.762 49.228 258.134 48.952 258.566 48.768C259.006 48.576 259.498 48.48 260.042 48.48C260.578 48.48 261.066 48.576 261.506 48.768C261.946 48.952 262.318 49.228 262.622 49.596C262.934 49.964 263.174 50.416 263.342 50.952C263.51 51.488 263.594 52.108 263.594 52.812C263.594 54.1 263.326 55.108 262.79 55.836C262.254 56.556 261.526 56.98 260.606 57.108V58.128H261.89V58.968ZM260.042 56.244C260.402 56.244 260.734 56.18 261.038 56.052C261.342 55.924 261.602 55.74 261.818 55.5C262.042 55.26 262.214 54.972 262.334 54.636C262.454 54.3 262.514 53.924 262.514 53.508V52.116C262.514 51.7 262.454 51.324 262.334 50.988C262.214 50.652 262.042 50.364 261.818 50.124C261.602 49.884 261.342 49.7 261.038 49.572C260.734 49.444 260.402 49.38 260.042 49.38C259.682 49.38 259.35 49.444 259.046 49.572C258.742 49.7 258.478 49.884 258.254 50.124C258.038 50.364 257.87 50.652 257.75 50.988C257.63 51.324 257.57 51.7 257.57 52.116V53.508C257.57 53.924 257.63 54.3 257.75 54.636C257.87 54.972 258.038 55.26 258.254 55.5C258.478 55.74 258.742 55.924 259.046 56.052C259.35 56.18 259.682 56.244 260.042 56.244ZM270.986 57H265.49V55.968L268.226 53.448C268.618 53.088 268.946 52.708 269.21 52.308C269.474 51.9 269.606 51.492 269.606 51.084V50.94C269.606 50.476 269.478 50.1 269.222 49.812C268.966 49.524 268.578 49.38 268.058 49.38C267.802 49.38 267.578 49.416 267.386 49.488C267.194 49.56 267.026 49.66 266.882 49.788C266.746 49.916 266.63 50.068 266.534 50.244C266.446 50.412 266.374 50.596 266.318 50.796L265.418 50.448C265.498 50.2 265.606 49.96 265.742 49.728C265.886 49.488 266.062 49.276 266.27 49.092C266.486 48.908 266.742 48.76 267.038 48.648C267.342 48.536 267.698 48.48 268.106 48.48C268.514 48.48 268.878 48.54 269.198 48.66C269.518 48.78 269.786 48.948 270.002 49.164C270.218 49.38 270.382 49.636 270.494 49.932C270.614 50.228 270.674 50.556 270.674 50.916C270.674 51.244 270.626 51.548 270.53 51.828C270.442 52.108 270.318 52.376 270.158 52.632C269.998 52.88 269.802 53.124 269.57 53.364C269.346 53.604 269.102 53.844 268.838 54.084L266.582 56.112H270.986V57ZM281.619 57H276.123V55.968L278.859 53.448C279.251 53.088 279.579 52.708 279.843 52.308C280.107 51.9 280.239 51.492 280.239 51.084V50.94C280.239 50.476 280.111 50.1 279.855 49.812C279.599 49.524 279.211 49.38 278.691 49.38C278.435 49.38 278.211 49.416 278.019 49.488C277.827 49.56 277.659 49.66 277.515 49.788C277.379 49.916 277.263 50.068 277.167 50.244C277.079 50.412 277.007 50.596 276.951 50.796L276.051 50.448C276.131 50.2 276.239 49.96 276.375 49.728C276.519 49.488 276.695 49.276 276.903 49.092C277.119 48.908 277.375 48.76 277.671 48.648C277.975 48.536 278.331 48.48 278.739 48.48C279.147 48.48 279.511 48.54 279.831 48.66C280.151 48.78 280.419 48.948 280.635 49.164C280.851 49.38 281.015 49.636 281.127 49.932C281.247 50.228 281.307 50.556 281.307 50.916C281.307 51.244 281.259 51.548 281.163 51.828C281.075 52.108 280.951 52.376 280.791 52.632C280.631 52.88 280.435 53.124 280.203 53.364C279.979 53.604 279.735 53.844 279.471 54.084L277.215 56.112H281.619V57ZM286.319 57.144C285.319 57.144 284.587 56.764 284.123 56.004C283.667 55.244 283.439 54.18 283.439 52.812C283.439 51.444 283.667 50.38 284.123 49.62C284.587 48.86 285.319 48.48 286.319 48.48C287.319 48.48 288.047 48.86 288.503 49.62C288.967 50.38 289.199 51.444 289.199 52.812C289.199 54.18 288.967 55.244 288.503 56.004C288.047 56.764 287.319 57.144 286.319 57.144ZM286.319 56.268C286.647 56.268 286.927 56.2 287.159 56.064C287.391 55.928 287.579 55.736 287.723 55.488C287.867 55.24 287.971 54.948 288.035 54.612C288.107 54.276 288.143 53.904 288.143 53.496V52.128C288.143 51.72 288.107 51.348 288.035 51.012C287.971 50.676 287.867 50.384 287.723 50.136C287.579 49.888 287.391 49.696 287.159 49.56C286.927 49.424 286.647 49.356 286.319 49.356C285.991 49.356 285.711 49.424 285.479 49.56C285.247 49.696 285.059 49.888 284.915 50.136C284.771 50.384 284.663 50.676 284.591 51.012C284.527 51.348 284.495 51.72 284.495 52.128V53.496C284.495 53.904 284.527 54.276 284.591 54.612C284.663 54.948 284.771 55.24 284.915 55.488C285.059 55.736 285.247 55.928 285.479 56.064C285.711 56.2 285.991 56.268 286.319 56.268ZM291.271 57V56.112H293.611V49.368H293.527L291.415 51.336L290.827 50.7L293.047 48.624H294.619V56.112H296.779V57H291.271ZM299.81 57L303.014 49.488H299.438V51.048H298.538V48.624H304.034V49.512L300.89 57H299.81ZM250.198 73.984V73C249.59 72.96 249.074 72.812 248.65 72.556C248.234 72.292 247.878 71.964 247.582 71.572L248.29 70.936C248.546 71.28 248.826 71.556 249.13 71.764C249.442 71.964 249.802 72.092 250.21 72.148V69.064C249.386 68.88 248.782 68.612 248.398 68.26C248.022 67.9 247.834 67.408 247.834 66.784C247.834 66.464 247.89 66.18 248.002 65.932C248.122 65.676 248.286 65.456 248.494 65.272C248.702 65.088 248.95 64.944 249.238 64.84C249.526 64.728 249.846 64.656 250.198 64.624V63.64H250.942V64.612C251.486 64.66 251.954 64.8 252.346 65.032C252.746 65.256 253.09 65.568 253.378 65.968L252.646 66.52C252.446 66.24 252.206 66.012 251.926 65.836C251.646 65.652 251.314 65.532 250.93 65.476V68.284L251.038 68.308C251.87 68.492 252.474 68.764 252.85 69.124C253.234 69.476 253.426 69.968 253.426 70.6C253.426 71.288 253.202 71.844 252.754 72.268C252.314 72.684 251.71 72.928 250.942 73V73.984H250.198ZM252.478 70.66C252.478 70.252 252.358 69.94 252.118 69.724C251.886 69.508 251.49 69.332 250.93 69.196V72.148C251.41 72.084 251.786 71.924 252.058 71.668C252.338 71.404 252.478 71.068 252.478 70.66ZM248.782 66.712C248.782 67.12 248.898 67.428 249.13 67.636C249.37 67.836 249.73 68 250.21 68.128V65.476C249.778 65.532 249.43 65.664 249.166 65.872C248.91 66.08 248.782 66.36 248.782 66.712ZM260.406 65.512H256.734L256.494 68.704H256.578C256.778 68.424 257.002 68.2 257.25 68.032C257.506 67.864 257.854 67.78 258.294 67.78C258.654 67.78 258.986 67.84 259.29 67.96C259.594 68.08 259.858 68.252 260.082 68.476C260.306 68.692 260.478 68.96 260.598 69.28C260.726 69.6 260.79 69.964 260.79 70.372C260.79 70.78 260.726 71.156 260.598 71.5C260.47 71.836 260.282 72.128 260.034 72.376C259.794 72.616 259.498 72.804 259.146 72.94C258.802 73.076 258.41 73.144 257.97 73.144C257.618 73.144 257.306 73.104 257.034 73.024C256.77 72.944 256.534 72.836 256.326 72.7C256.118 72.564 255.934 72.412 255.774 72.244C255.622 72.076 255.482 71.9 255.354 71.716L256.11 71.14C256.214 71.308 256.322 71.46 256.434 71.596C256.554 71.732 256.682 71.848 256.818 71.944C256.962 72.04 257.126 72.116 257.31 72.172C257.494 72.22 257.714 72.244 257.97 72.244C258.546 72.244 258.982 72.092 259.278 71.788C259.574 71.484 259.722 71.056 259.722 70.504V70.384C259.722 69.832 259.574 69.404 259.278 69.1C258.982 68.796 258.546 68.644 257.97 68.644C257.586 68.644 257.282 68.716 257.058 68.86C256.842 68.996 256.646 69.16 256.47 69.352L255.618 69.232L255.918 64.624H260.406V65.512ZM263.558 71.596C263.814 71.596 263.998 71.664 264.11 71.8C264.23 71.928 264.29 72.096 264.29 72.304V72.472C264.29 72.8 264.194 73.16 264.002 73.552C263.81 73.952 263.542 74.3 263.198 74.596H262.394C262.634 74.34 262.826 74.096 262.97 73.864C263.122 73.64 263.23 73.388 263.294 73.108C263.134 73.068 263.014 72.992 262.934 72.88C262.862 72.768 262.826 72.632 262.826 72.472V72.304C262.826 72.096 262.882 71.928 262.994 71.8C263.114 71.664 263.302 71.596 263.558 71.596ZM269.996 73V71.356H265.952V70.468L269.456 64.624H270.956V70.516H272.168V71.356H270.956V73H269.996ZM266.9 70.516H269.996V65.404H269.936L266.9 70.516ZM279.388 67.696C279.388 68.32 279.296 68.908 279.112 69.46C278.928 70.004 278.688 70.504 278.392 70.96C278.104 71.408 277.784 71.808 277.432 72.16C277.08 72.504 276.736 72.784 276.4 73H275.104C275.552 72.672 275.952 72.352 276.304 72.04C276.656 71.728 276.964 71.404 277.228 71.068C277.492 70.724 277.716 70.36 277.9 69.976C278.084 69.584 278.232 69.144 278.344 68.656L278.284 68.632C278.084 68.976 277.824 69.264 277.504 69.496C277.192 69.72 276.78 69.832 276.268 69.832C275.908 69.832 275.576 69.772 275.272 69.652C274.968 69.532 274.708 69.36 274.492 69.136C274.276 68.912 274.104 68.644 273.976 68.332C273.856 68.012 273.796 67.652 273.796 67.252C273.796 66.844 273.86 66.472 273.988 66.136C274.124 65.792 274.312 65.5 274.552 65.26C274.8 65.012 275.092 64.82 275.428 64.684C275.772 64.548 276.156 64.48 276.58 64.48C277.012 64.48 277.4 64.556 277.744 64.708C278.096 64.852 278.392 65.064 278.632 65.344C278.88 65.616 279.068 65.952 279.196 66.352C279.324 66.752 279.388 67.2 279.388 67.696ZM276.592 68.98C277.144 68.98 277.572 68.828 277.876 68.524C278.188 68.22 278.344 67.784 278.344 67.216V67.12C278.344 66.552 278.188 66.116 277.876 65.812C277.572 65.508 277.144 65.356 276.592 65.356C276.04 65.356 275.608 65.508 275.296 65.812C274.992 66.116 274.84 66.552 274.84 67.12V67.216C274.84 67.784 274.992 68.22 275.296 68.524C275.608 68.828 276.04 68.98 276.592 68.98ZM286.884 73H281.388V71.968L284.124 69.448C284.516 69.088 284.844 68.708 285.108 68.308C285.372 67.9 285.504 67.492 285.504 67.084V66.94C285.504 66.476 285.376 66.1 285.12 65.812C284.864 65.524 284.476 65.38 283.956 65.38C283.7 65.38 283.476 65.416 283.284 65.488C283.092 65.56 282.924 65.66 282.78 65.788C282.644 65.916 282.528 66.068 282.432 66.244C282.344 66.412 282.272 66.596 282.216 66.796L281.316 66.448C281.396 66.2 281.504 65.96 281.64 65.728C281.784 65.488 281.96 65.276 282.168 65.092C282.384 64.908 282.64 64.76 282.936 64.648C283.24 64.536 283.596 64.48 284.004 64.48C284.412 64.48 284.776 64.54 285.096 64.66C285.416 64.78 285.684 64.948 285.9 65.164C286.116 65.38 286.28 65.636 286.392 65.932C286.512 66.228 286.572 66.556 286.572 66.916C286.572 67.244 286.524 67.548 286.428 67.828C286.34 68.108 286.216 68.376 286.056 68.632C285.896 68.88 285.7 69.124 285.468 69.364C285.244 69.604 285 69.844 284.736 70.084L282.48 72.112H286.884V73ZM289.616 71.596C289.872 71.596 290.056 71.664 290.168 71.8C290.288 71.928 290.348 72.096 290.348 72.304V72.472C290.348 72.8 290.252 73.16 290.06 73.552C289.868 73.952 289.6 74.3 289.256 74.596H288.452C288.692 74.34 288.884 74.096 289.028 73.864C289.18 73.64 289.288 73.388 289.352 73.108C289.192 73.068 289.072 72.992 288.992 72.88C288.92 72.768 288.884 72.632 288.884 72.472V72.304C288.884 72.096 288.94 71.928 289.052 71.8C289.172 71.664 289.36 71.596 289.616 71.596ZM295.154 73.144C294.674 73.144 294.254 73.084 293.894 72.964C293.534 72.836 293.23 72.664 292.982 72.448C292.742 72.232 292.558 71.976 292.43 71.68C292.31 71.384 292.25 71.064 292.25 70.72C292.25 70.144 292.406 69.688 292.718 69.352C293.03 69.016 293.438 68.78 293.942 68.644V68.548C293.502 68.396 293.15 68.152 292.886 67.816C292.63 67.472 292.502 67.06 292.502 66.58C292.502 65.94 292.734 65.432 293.198 65.056C293.662 64.672 294.314 64.48 295.154 64.48C295.994 64.48 296.646 64.672 297.11 65.056C297.574 65.432 297.806 65.94 297.806 66.58C297.806 67.06 297.674 67.472 297.41 67.816C297.154 68.152 296.806 68.396 296.366 68.548V68.644C296.87 68.78 297.278 69.016 297.59 69.352C297.902 69.688 298.058 70.144 298.058 70.72C298.058 71.064 297.994 71.384 297.866 71.68C297.746 71.976 297.562 72.232 297.314 72.448C297.074 72.664 296.774 72.836 296.414 72.964C296.054 73.084 295.634 73.144 295.154 73.144ZM295.154 72.268C295.738 72.268 296.19 72.14 296.51 71.884C296.83 71.62 296.99 71.248 296.99 70.768V70.516C296.99 70.036 296.83 69.668 296.51 69.412C296.19 69.148 295.738 69.016 295.154 69.016C294.57 69.016 294.118 69.148 293.798 69.412C293.478 69.668 293.318 70.036 293.318 70.516V70.768C293.318 71.248 293.478 71.62 293.798 71.884C294.118 72.14 294.57 72.268 295.154 72.268ZM295.154 68.176C295.682 68.176 296.082 68.064 296.354 67.84C296.626 67.616 296.762 67.288 296.762 66.856V66.676C296.762 66.244 296.626 65.916 296.354 65.692C296.082 65.468 295.682 65.356 295.154 65.356C294.626 65.356 294.226 65.468 293.954 65.692C293.682 65.916 293.546 66.244 293.546 66.676V66.856C293.546 67.288 293.682 67.616 293.954 67.84C294.226 68.064 294.626 68.176 295.154 68.176ZM303.55 73V71.356H299.506V70.468L303.01 64.624H304.51V70.516H305.722V71.356H304.51V73H303.55ZM300.454 70.516H303.55V65.404H303.49L300.454 70.516ZM310.146 73.144C309.146 73.144 308.414 72.764 307.95 72.004C307.494 71.244 307.266 70.18 307.266 68.812C307.266 67.444 307.494 66.38 307.95 65.62C308.414 64.86 309.146 64.48 310.146 64.48C311.146 64.48 311.874 64.86 312.33 65.62C312.794 66.38 313.026 67.444 313.026 68.812C313.026 70.18 312.794 71.244 312.33 72.004C311.874 72.764 311.146 73.144 310.146 73.144ZM310.146 72.268C310.474 72.268 310.754 72.2 310.986 72.064C311.218 71.928 311.406 71.736 311.55 71.488C311.694 71.24 311.798 70.948 311.862 70.612C311.934 70.276 311.97 69.904 311.97 69.496V68.128C311.97 67.72 311.934 67.348 311.862 67.012C311.798 66.676 311.694 66.384 311.55 66.136C311.406 65.888 311.218 65.696 310.986 65.56C310.754 65.424 310.474 65.356 310.146 65.356C309.818 65.356 309.538 65.424 309.306 65.56C309.074 65.696 308.886 65.888 308.742 66.136C308.598 66.384 308.49 66.676 308.418 67.012C308.354 67.348 308.322 67.72 308.322 68.128V69.496C308.322 69.904 308.354 70.276 308.418 70.612C308.49 70.948 308.598 71.24 308.742 71.488C308.886 71.736 309.074 71.928 309.306 72.064C309.538 72.2 309.818 72.268 310.146 72.268Z" fill="white"/>
<circle cx="281" cy="102" r="3.5" fill="white" stroke="#F56B8D"/>
<path d="M117.299 352.5H111.709V351.721L114.662 348.439C115.1 347.943 115.4 347.541 115.564 347.232C115.732 346.92 115.816 346.598 115.816 346.266C115.816 345.82 115.682 345.455 115.412 345.17C115.143 344.885 114.783 344.742 114.334 344.742C113.795 344.742 113.375 344.896 113.074 345.205C112.777 345.51 112.629 345.936 112.629 346.482H111.545C111.545 345.697 111.797 345.062 112.301 344.578C112.809 344.094 113.486 343.852 114.334 343.852C115.127 343.852 115.754 344.061 116.215 344.479C116.676 344.893 116.906 345.445 116.906 346.137C116.906 346.977 116.371 347.977 115.301 349.137L113.016 351.615H117.299V352.5ZM123.797 348.861C123.797 350.131 123.58 351.074 123.146 351.691C122.713 352.309 122.035 352.617 121.113 352.617C120.203 352.617 119.529 352.316 119.092 351.715C118.654 351.109 118.428 350.207 118.412 349.008V347.561C118.412 346.307 118.629 345.375 119.062 344.766C119.496 344.156 120.176 343.852 121.102 343.852C122.02 343.852 122.695 344.146 123.129 344.736C123.562 345.322 123.785 346.229 123.797 347.455V348.861ZM122.713 347.379C122.713 346.461 122.584 345.793 122.326 345.375C122.068 344.953 121.66 344.742 121.102 344.742C120.547 344.742 120.143 344.951 119.889 345.369C119.635 345.787 119.504 346.43 119.496 347.297V349.031C119.496 349.953 119.629 350.635 119.895 351.076C120.164 351.514 120.57 351.732 121.113 351.732C121.648 351.732 122.045 351.525 122.303 351.111C122.564 350.697 122.701 350.045 122.713 349.154V347.379ZM128.748 352.5H127.658V345.275L125.473 346.078V345.094L128.578 343.928H128.748V352.5ZM132.422 348.223L132.855 343.969H137.227V344.971H133.775L133.518 347.297C133.936 347.051 134.41 346.928 134.941 346.928C135.719 346.928 136.336 347.186 136.793 347.701C137.25 348.213 137.479 348.906 137.479 349.781C137.479 350.66 137.24 351.354 136.764 351.861C136.291 352.365 135.629 352.617 134.777 352.617C134.023 352.617 133.408 352.408 132.932 351.99C132.455 351.572 132.184 350.994 132.117 350.256H133.143C133.209 350.744 133.383 351.113 133.664 351.363C133.945 351.609 134.316 351.732 134.777 351.732C135.281 351.732 135.676 351.561 135.961 351.217C136.25 350.873 136.395 350.398 136.395 349.793C136.395 349.223 136.238 348.766 135.926 348.422C135.617 348.074 135.205 347.9 134.689 347.9C134.217 347.9 133.846 348.004 133.576 348.211L133.289 348.445L132.422 348.223Z" fill="#333333"/>
<path d="M201.499 352.5H195.909V351.721L198.862 348.439C199.3 347.943 199.6 347.541 199.764 347.232C199.932 346.92 200.016 346.598 200.016 346.266C200.016 345.82 199.882 345.455 199.612 345.17C199.343 344.885 198.983 344.742 198.534 344.742C197.995 344.742 197.575 344.896 197.274 345.205C196.977 345.51 196.829 345.936 196.829 346.482H195.745C195.745 345.697 195.997 345.062 196.501 344.578C197.009 344.094 197.686 343.852 198.534 343.852C199.327 343.852 199.954 344.061 200.415 344.479C200.876 344.893 201.106 345.445 201.106 346.137C201.106 346.977 200.571 347.977 199.501 349.137L197.216 351.615H201.499V352.5ZM207.997 348.861C207.997 350.131 207.78 351.074 207.346 351.691C206.913 352.309 206.235 352.617 205.313 352.617C204.403 352.617 203.729 352.316 203.292 351.715C202.854 351.109 202.628 350.207 202.612 349.008V347.561C202.612 346.307 202.829 345.375 203.263 344.766C203.696 344.156 204.376 343.852 205.302 343.852C206.22 343.852 206.895 344.146 207.329 344.736C207.763 345.322 207.985 346.229 207.997 347.455V348.861ZM206.913 347.379C206.913 346.461 206.784 345.793 206.526 345.375C206.268 344.953 205.86 344.742 205.302 344.742C204.747 344.742 204.343 344.951 204.089 345.369C203.835 345.787 203.704 346.43 203.696 347.297V349.031C203.696 349.953 203.829 350.635 204.095 351.076C204.364 351.514 204.77 351.732 205.313 351.732C205.848 351.732 206.245 351.525 206.503 351.111C206.764 350.697 206.901 350.045 206.913 349.154V347.379ZM212.948 352.5H211.858V345.275L209.673 346.078V345.094L212.778 343.928H212.948V352.5ZM220.378 343.963V344.883H220.179C219.335 344.898 218.663 345.148 218.163 345.633C217.663 346.117 217.374 346.799 217.296 347.678C217.745 347.162 218.358 346.904 219.136 346.904C219.878 346.904 220.47 347.166 220.911 347.689C221.356 348.213 221.579 348.889 221.579 349.717C221.579 350.596 221.339 351.299 220.858 351.826C220.382 352.354 219.741 352.617 218.936 352.617C218.12 352.617 217.458 352.305 216.95 351.68C216.442 351.051 216.188 350.242 216.188 349.254V348.838C216.188 347.268 216.522 346.068 217.19 345.24C217.862 344.408 218.86 343.982 220.184 343.963H220.378ZM218.954 347.807C218.583 347.807 218.241 347.918 217.929 348.141C217.616 348.363 217.399 348.643 217.278 348.979V349.377C217.278 350.08 217.436 350.646 217.753 351.076C218.069 351.506 218.464 351.721 218.936 351.721C219.425 351.721 219.807 351.541 220.085 351.182C220.366 350.822 220.507 350.352 220.507 349.77C220.507 349.184 220.364 348.711 220.079 348.352C219.798 347.988 219.423 347.807 218.954 347.807Z" fill="#333333"/>
<path d="M285.699 352.5H280.109V351.721L283.062 348.439C283.5 347.943 283.8 347.541 283.964 347.232C284.132 346.92 284.216 346.598 284.216 346.266C284.216 345.82 284.082 345.455 283.812 345.17C283.543 344.885 283.183 344.742 282.734 344.742C282.195 344.742 281.775 344.896 281.474 345.205C281.177 345.51 281.029 345.936 281.029 346.482H279.945C279.945 345.697 280.197 345.062 280.701 344.578C281.209 344.094 281.886 343.852 282.734 343.852C283.527 343.852 284.154 344.061 284.615 344.479C285.076 344.893 285.306 345.445 285.306 346.137C285.306 346.977 284.771 347.977 283.701 349.137L281.416 351.615H285.699V352.5ZM292.197 348.861C292.197 350.131 291.98 351.074 291.546 351.691C291.113 352.309 290.435 352.617 289.513 352.617C288.603 352.617 287.929 352.316 287.492 351.715C287.054 351.109 286.828 350.207 286.812 349.008V347.561C286.812 346.307 287.029 345.375 287.462 344.766C287.896 344.156 288.576 343.852 289.502 343.852C290.42 343.852 291.095 344.146 291.529 344.736C291.962 345.322 292.185 346.229 292.197 347.455V348.861ZM291.113 347.379C291.113 346.461 290.984 345.793 290.726 345.375C290.468 344.953 290.06 344.742 289.502 344.742C288.947 344.742 288.543 344.951 288.289 345.369C288.035 345.787 287.904 346.43 287.896 347.297V349.031C287.896 349.953 288.029 350.635 288.295 351.076C288.564 351.514 288.97 351.732 289.513 351.732C290.048 351.732 290.445 351.525 290.703 351.111C290.964 350.697 291.101 350.045 291.113 349.154V347.379ZM297.148 352.5H296.058V345.275L293.873 346.078V345.094L296.978 343.928H297.148V352.5ZM305.832 344.578L302.298 352.5H301.162L304.683 344.859H300.066V343.969H305.832V344.578Z" fill="#333333"/>
<path d="M369.899 352.5H364.309V351.721L367.262 348.439C367.7 347.943 368 347.541 368.164 347.232C368.332 346.92 368.416 346.598 368.416 346.266C368.416 345.82 368.282 345.455 368.012 345.17C367.743 344.885 367.383 344.742 366.934 344.742C366.395 344.742 365.975 344.896 365.674 345.205C365.377 345.51 365.229 345.936 365.229 346.482H364.145C364.145 345.697 364.397 345.062 364.901 344.578C365.409 344.094 366.086 343.852 366.934 343.852C367.727 343.852 368.354 344.061 368.815 344.479C369.276 344.893 369.506 345.445 369.506 346.137C369.506 346.977 368.971 347.977 367.901 349.137L365.616 351.615H369.899V352.5ZM376.397 348.861C376.397 350.131 376.18 351.074 375.746 351.691C375.313 352.309 374.635 352.617 373.713 352.617C372.803 352.617 372.129 352.316 371.692 351.715C371.254 351.109 371.028 350.207 371.012 349.008V347.561C371.012 346.307 371.229 345.375 371.662 344.766C372.096 344.156 372.776 343.852 373.702 343.852C374.62 343.852 375.295 344.146 375.729 344.736C376.162 345.322 376.385 346.229 376.397 347.455V348.861ZM375.313 347.379C375.313 346.461 375.184 345.793 374.926 345.375C374.668 344.953 374.26 344.742 373.702 344.742C373.147 344.742 372.743 344.951 372.489 345.369C372.235 345.787 372.104 346.43 372.096 347.297V349.031C372.096 349.953 372.229 350.635 372.495 351.076C372.764 351.514 373.17 351.732 373.713 351.732C374.248 351.732 374.645 351.525 374.903 351.111C375.164 350.697 375.301 350.045 375.313 349.154V347.379ZM381.348 352.5H380.258V345.275L378.073 346.078V345.094L381.178 343.928H381.348V352.5ZM389.698 346.195C389.698 346.621 389.584 347 389.358 347.332C389.135 347.664 388.832 347.924 388.45 348.111C388.895 348.303 389.246 348.582 389.504 348.949C389.766 349.316 389.897 349.732 389.897 350.197C389.897 350.936 389.647 351.523 389.147 351.961C388.651 352.398 387.996 352.617 387.184 352.617C386.364 352.617 385.705 352.398 385.209 351.961C384.717 351.52 384.471 350.932 384.471 350.197C384.471 349.736 384.596 349.32 384.846 348.949C385.1 348.578 385.45 348.297 385.895 348.105C385.516 347.918 385.217 347.658 384.998 347.326C384.78 346.994 384.67 346.617 384.67 346.195C384.67 345.477 384.901 344.906 385.362 344.484C385.823 344.062 386.43 343.852 387.184 343.852C387.934 343.852 388.539 344.062 389 344.484C389.465 344.906 389.698 345.477 389.698 346.195ZM388.813 350.174C388.813 349.697 388.661 349.309 388.356 349.008C388.055 348.707 387.661 348.557 387.172 348.557C386.684 348.557 386.291 348.705 385.995 349.002C385.702 349.299 385.555 349.689 385.555 350.174C385.555 350.658 385.698 351.039 385.983 351.316C386.272 351.594 386.672 351.732 387.184 351.732C387.692 351.732 388.09 351.594 388.379 351.316C388.668 351.035 388.813 350.654 388.813 350.174ZM387.184 344.742C386.758 344.742 386.412 344.875 386.147 345.141C385.885 345.402 385.754 345.76 385.754 346.213C385.754 346.646 385.883 346.998 386.141 347.268C386.403 347.533 386.75 347.666 387.184 347.666C387.618 347.666 387.963 347.533 388.221 347.268C388.483 346.998 388.614 346.646 388.614 346.213C388.614 345.779 388.479 345.426 388.209 345.152C387.94 344.879 387.598 344.742 387.184 344.742Z" fill="#333333"/>
<path d="M454.099 352.5H448.509V351.721L451.462 348.439C451.9 347.943 452.2 347.541 452.364 347.232C452.532 346.92 452.616 346.598 452.616 346.266C452.616 345.82 452.482 345.455 452.212 345.17C451.943 344.885 451.583 344.742 451.134 344.742C450.595 344.742 450.175 344.896 449.874 345.205C449.577 345.51 449.429 345.936 449.429 346.482H448.345C448.345 345.697 448.597 345.062 449.101 344.578C449.609 344.094 450.286 343.852 451.134 343.852C451.927 343.852 452.554 344.061 453.015 344.479C453.476 344.893 453.706 345.445 453.706 346.137C453.706 346.977 453.171 347.977 452.101 349.137L449.816 351.615H454.099V352.5ZM460.597 348.861C460.597 350.131 460.38 351.074 459.946 351.691C459.513 352.309 458.835 352.617 457.913 352.617C457.003 352.617 456.329 352.316 455.892 351.715C455.454 351.109 455.228 350.207 455.212 349.008V347.561C455.212 346.307 455.429 345.375 455.862 344.766C456.296 344.156 456.976 343.852 457.902 343.852C458.82 343.852 459.495 344.146 459.929 344.736C460.362 345.322 460.585 346.229 460.597 347.455V348.861ZM459.513 347.379C459.513 346.461 459.384 345.793 459.126 345.375C458.868 344.953 458.46 344.742 457.902 344.742C457.347 344.742 456.943 344.951 456.689 345.369C456.435 345.787 456.304 346.43 456.296 347.297V349.031C456.296 349.953 456.429 350.635 456.695 351.076C456.964 351.514 457.37 351.732 457.913 351.732C458.448 351.732 458.845 351.525 459.103 351.111C459.364 350.697 459.501 350.045 459.513 349.154V347.379ZM465.548 352.5H464.458V345.275L462.273 346.078V345.094L465.378 343.928H465.548V352.5ZM472.878 348.75C472.652 349.02 472.38 349.236 472.064 349.4C471.751 349.564 471.407 349.646 471.032 349.646C470.54 349.646 470.111 349.525 469.743 349.283C469.38 349.041 469.099 348.701 468.9 348.264C468.7 347.822 468.601 347.336 468.601 346.805C468.601 346.234 468.708 345.721 468.923 345.264C469.142 344.807 469.45 344.457 469.849 344.215C470.247 343.973 470.712 343.852 471.243 343.852C472.087 343.852 472.751 344.168 473.236 344.801C473.724 345.43 473.968 346.289 473.968 347.379V347.695C473.968 349.355 473.64 350.568 472.984 351.334C472.327 352.096 471.337 352.486 470.013 352.506H469.802V351.592H470.03C470.925 351.576 471.612 351.344 472.093 350.895C472.573 350.441 472.835 349.727 472.878 348.75ZM471.208 348.75C471.571 348.75 471.905 348.639 472.21 348.416C472.519 348.193 472.743 347.918 472.884 347.59V347.156C472.884 346.445 472.73 345.867 472.421 345.422C472.112 344.977 471.722 344.754 471.249 344.754C470.773 344.754 470.39 344.938 470.101 345.305C469.812 345.668 469.667 346.148 469.667 346.746C469.667 347.328 469.806 347.809 470.083 348.188C470.364 348.562 470.739 348.75 471.208 348.75Z" fill="#333333"/>
<path d="M538.299 352.5H532.709V351.721L535.662 348.439C536.1 347.943 536.4 347.541 536.564 347.232C536.732 346.92 536.816 346.598 536.816 346.266C536.816 345.82 536.682 345.455 536.412 345.17C536.143 344.885 535.783 344.742 535.334 344.742C534.795 344.742 534.375 344.896 534.074 345.205C533.777 345.51 533.629 345.936 533.629 346.482H532.545C532.545 345.697 532.797 345.062 533.301 344.578C533.809 344.094 534.486 343.852 535.334 343.852C536.127 343.852 536.754 344.061 537.215 344.479C537.676 344.893 537.906 345.445 537.906 346.137C537.906 346.977 537.371 347.977 536.301 349.137L534.016 351.615H538.299V352.5ZM544.797 348.861C544.797 350.131 544.58 351.074 544.146 351.691C543.713 352.309 543.035 352.617 542.113 352.617C541.203 352.617 540.529 352.316 540.092 351.715C539.654 351.109 539.428 350.207 539.412 349.008V347.561C539.412 346.307 539.629 345.375 540.062 344.766C540.496 344.156 541.176 343.852 542.102 343.852C543.02 343.852 543.695 344.146 544.129 344.736C544.562 345.322 544.785 346.229 544.797 347.455V348.861ZM543.713 347.379C543.713 346.461 543.584 345.793 543.326 345.375C543.068 344.953 542.66 344.742 542.102 344.742C541.547 344.742 541.143 344.951 540.889 345.369C540.635 345.787 540.504 346.43 540.496 347.297V349.031C540.496 349.953 540.629 350.635 540.895 351.076C541.164 351.514 541.57 351.732 542.113 351.732C542.648 351.732 543.045 351.525 543.303 351.111C543.564 350.697 543.701 350.045 543.713 349.154V347.379ZM551.775 352.5H546.186V351.721L549.139 348.439C549.576 347.943 549.877 347.541 550.041 347.232C550.209 346.92 550.293 346.598 550.293 346.266C550.293 345.82 550.158 345.455 549.889 345.17C549.619 344.885 549.26 344.742 548.811 344.742C548.271 344.742 547.852 344.896 547.551 345.205C547.254 345.51 547.105 345.936 547.105 346.482H546.021C546.021 345.697 546.273 345.062 546.777 344.578C547.285 344.094 547.963 343.852 548.811 343.852C549.604 343.852 550.23 344.061 550.691 344.479C551.152 344.893 551.383 345.445 551.383 346.137C551.383 346.977 550.848 347.977 549.777 349.137L547.492 351.615H551.775V352.5ZM558.273 348.861C558.273 350.131 558.057 351.074 557.623 351.691C557.189 352.309 556.512 352.617 555.59 352.617C554.68 352.617 554.006 352.316 553.568 351.715C553.131 351.109 552.904 350.207 552.889 349.008V347.561C552.889 346.307 553.105 345.375 553.539 344.766C553.973 344.156 554.652 343.852 555.578 343.852C556.496 343.852 557.172 344.146 557.605 344.736C558.039 345.322 558.262 346.229 558.273 347.455V348.861ZM557.189 347.379C557.189 346.461 557.061 345.793 556.803 345.375C556.545 344.953 556.137 344.742 555.578 344.742C555.023 344.742 554.619 344.951 554.365 345.369C554.111 345.787 553.98 346.43 553.973 347.297V349.031C553.973 349.953 554.105 350.635 554.371 351.076C554.641 351.514 555.047 351.732 555.59 351.732C556.125 351.732 556.521 351.525 556.779 351.111C557.041 350.697 557.178 350.045 557.189 349.154V347.379Z" fill="#333333"/>
<path d="M51.0156 31.3027C51.0156 30.9434 50.8887 30.6406 50.6348 30.3945C50.3848 30.1484 49.9609 29.9258 49.3633 29.7266C48.5312 29.4727 47.9238 29.1426 47.541 28.7363C47.1621 28.3262 46.9727 27.8066 46.9727 27.1777C46.9727 26.5371 47.1582 26.0117 47.5293 25.6016C47.9043 25.1914 48.418 24.9473 49.0703 24.8691V23.5859H49.9434V24.875C50.5996 24.9648 51.1094 25.2402 51.4727 25.7012C51.8398 26.1621 52.0234 26.793 52.0234 27.5938H50.9453C50.9453 27.043 50.8145 26.6055 50.5527 26.2812C50.291 25.957 49.9375 25.7949 49.4922 25.7949C49.0273 25.7949 48.6719 25.916 48.4258 26.1582C48.1797 26.3965 48.0566 26.7305 48.0566 27.1602C48.0566 27.5586 48.1855 27.877 48.4434 28.1152C48.7051 28.3496 49.1328 28.5645 49.7266 28.7598C50.3242 28.9512 50.7891 29.1641 51.1211 29.3984C51.457 29.6289 51.7031 29.8984 51.8594 30.207C52.0195 30.5156 52.0996 30.877 52.0996 31.291C52.0996 31.9512 51.9004 32.4824 51.502 32.8848C51.1074 33.2871 50.5527 33.5254 49.8379 33.5996V34.7188H48.9707V33.5996C48.2441 33.5332 47.6738 33.2754 47.2598 32.8262C46.8496 32.373 46.6445 31.7598 46.6445 30.9863H47.7285C47.7285 31.5293 47.8711 31.9473 48.1562 32.2402C48.4414 32.5332 48.8457 32.6797 49.3691 32.6797C49.8809 32.6797 50.2832 32.5566 50.5762 32.3105C50.8691 32.0645 51.0156 31.7285 51.0156 31.3027ZM58.9551 25.5781L55.4219 33.5H54.2852L57.8066 25.8594H53.1895V24.9688H58.9551V25.5781ZM61.9199 24.9688L64.709 31.9297L67.498 24.9688H68.957V33.5H67.832V30.1777L67.9375 26.5918L65.1367 33.5H64.2754L61.4805 26.6094L61.5918 30.1777V33.5H60.4668V24.9688H61.9199Z" fill="#333333"/>
<path d="M51.0156 74.8027C51.0156 74.4434 50.8887 74.1406 50.6348 73.8945C50.3848 73.6484 49.9609 73.4258 49.3633 73.2266C48.5312 72.9727 47.9238 72.6426 47.541 72.2363C47.1621 71.8262 46.9727 71.3066 46.9727 70.6777C46.9727 70.0371 47.1582 69.5117 47.5293 69.1016C47.9043 68.6914 48.418 68.4473 49.0703 68.3691V67.0859H49.9434V68.375C50.5996 68.4648 51.1094 68.7402 51.4727 69.2012C51.8398 69.6621 52.0234 70.293 52.0234 71.0938H50.9453C50.9453 70.543 50.8145 70.1055 50.5527 69.7812C50.291 69.457 49.9375 69.2949 49.4922 69.2949C49.0273 69.2949 48.6719 69.416 48.4258 69.6582C48.1797 69.8965 48.0566 70.2305 48.0566 70.6602C48.0566 71.0586 48.1855 71.377 48.4434 71.6152C48.7051 71.8496 49.1328 72.0645 49.7266 72.2598C50.3242 72.4512 50.7891 72.6641 51.1211 72.8984C51.457 73.1289 51.7031 73.3984 51.8594 73.707C52.0195 74.0156 52.0996 74.377 52.0996 74.791C52.0996 75.4512 51.9004 75.9824 51.502 76.3848C51.1074 76.7871 50.5527 77.0254 49.8379 77.0996V78.2188H48.9707V77.0996C48.2441 77.0332 47.6738 76.7754 47.2598 76.3262C46.8496 75.873 46.6445 75.2598 46.6445 74.4863H47.7285C47.7285 75.0293 47.8711 75.4473 48.1562 75.7402C48.4414 76.0332 48.8457 76.1797 49.3691 76.1797C49.8809 76.1797 50.2832 76.0566 50.5762 75.8105C50.8691 75.5645 51.0156 75.2285 51.0156 74.8027ZM57.7012 68.4629V69.3828H57.502C56.6582 69.3984 55.9863 69.6484 55.4863 70.1328C54.9863 70.6172 54.6973 71.2988 54.6191 72.1777C55.0684 71.6621 55.6816 71.4043 56.459 71.4043C57.2012 71.4043 57.793 71.666 58.2344 72.1895C58.6797 72.7129 58.9023 73.3887 58.9023 74.2168C58.9023 75.0957 58.6621 75.7988 58.1816 76.3262C57.7051 76.8535 57.0645 77.1172 56.2598 77.1172C55.4434 77.1172 54.7812 76.8047 54.2734 76.1797C53.7656 75.5508 53.5117 74.7422 53.5117 73.7539V73.3379C53.5117 71.7676 53.8457 70.5684 54.5137 69.7402C55.1855 68.9082 56.1836 68.4824 57.5078 68.4629H57.7012ZM56.2773 72.3066C55.9062 72.3066 55.5645 72.418 55.252 72.6406C54.9395 72.8633 54.7227 73.1426 54.6016 73.4785V73.877C54.6016 74.5801 54.7598 75.1465 55.0762 75.5762C55.3926 76.0059 55.7871 76.2207 56.2598 76.2207C56.748 76.2207 57.1309 76.041 57.4082 75.6816C57.6895 75.3223 57.8301 74.8516 57.8301 74.2695C57.8301 73.6836 57.6875 73.2109 57.4023 72.8516C57.1211 72.4883 56.7461 72.3066 56.2773 72.3066ZM61.9199 68.4688L64.709 75.4297L67.498 68.4688H68.957V77H67.832V73.6777L67.9375 70.0918L65.1367 77H64.2754L61.4805 70.1094L61.5918 73.6777V77H60.4668V68.4688H61.9199Z" fill="#333333"/>
<path d="M51.0156 118.303C51.0156 117.943 50.8887 117.641 50.6348 117.395C50.3848 117.148 49.9609 116.926 49.3633 116.727C48.5312 116.473 47.9238 116.143 47.541 115.736C47.1621 115.326 46.9727 114.807 46.9727 114.178C46.9727 113.537 47.1582 113.012 47.5293 112.602C47.9043 112.191 48.418 111.947 49.0703 111.869V110.586H49.9434V111.875C50.5996 111.965 51.1094 112.24 51.4727 112.701C51.8398 113.162 52.0234 113.793 52.0234 114.594H50.9453C50.9453 114.043 50.8145 113.605 50.5527 113.281C50.291 112.957 49.9375 112.795 49.4922 112.795C49.0273 112.795 48.6719 112.916 48.4258 113.158C48.1797 113.396 48.0566 113.73 48.0566 114.16C48.0566 114.559 48.1855 114.877 48.4434 115.115C48.7051 115.35 49.1328 115.564 49.7266 115.76C50.3242 115.951 50.7891 116.164 51.1211 116.398C51.457 116.629 51.7031 116.898 51.8594 117.207C52.0195 117.516 52.0996 117.877 52.0996 118.291C52.0996 118.951 51.9004 119.482 51.502 119.885C51.1074 120.287 50.5527 120.525 49.8379 120.6V121.719H48.9707V120.6C48.2441 120.533 47.6738 120.275 47.2598 119.826C46.8496 119.373 46.6445 118.76 46.6445 117.986H47.7285C47.7285 118.529 47.8711 118.947 48.1562 119.24C48.4414 119.533 48.8457 119.68 49.3691 119.68C49.8809 119.68 50.2832 119.557 50.5762 119.311C50.8691 119.064 51.0156 118.729 51.0156 118.303ZM53.9453 116.223L54.3789 111.969H58.75V112.971H55.2988L55.041 115.297C55.459 115.051 55.9336 114.928 56.4648 114.928C57.2422 114.928 57.8594 115.186 58.3164 115.701C58.7734 116.213 59.002 116.906 59.002 117.781C59.002 118.66 58.7637 119.354 58.2871 119.861C57.8145 120.365 57.1523 120.617 56.3008 120.617C55.5469 120.617 54.9316 120.408 54.4551 119.99C53.9785 119.572 53.707 118.994 53.6406 118.256H54.666C54.7324 118.744 54.9062 119.113 55.1875 119.363C55.4688 119.609 55.8398 119.732 56.3008 119.732C56.8047 119.732 57.1992 119.561 57.4844 119.217C57.7734 118.873 57.918 118.398 57.918 117.793C57.918 117.223 57.7617 116.766 57.4492 116.422C57.1406 116.074 56.7285 115.9 56.2129 115.9C55.7402 115.9 55.3691 116.004 55.0996 116.211L54.8125 116.445L53.9453 116.223ZM61.9199 111.969L64.709 118.93L67.498 111.969H68.957V120.5H67.832V117.178L67.9375 113.592L65.1367 120.5H64.2754L61.4805 113.609L61.5918 117.178V120.5H60.4668V111.969H61.9199Z" fill="#333333"/>
<path d="M51.0156 161.803C51.0156 161.443 50.8887 161.141 50.6348 160.895C50.3848 160.648 49.9609 160.426 49.3633 160.227C48.5312 159.973 47.9238 159.643 47.541 159.236C47.1621 158.826 46.9727 158.307 46.9727 157.678C46.9727 157.037 47.1582 156.512 47.5293 156.102C47.9043 155.691 48.418 155.447 49.0703 155.369V154.086H49.9434V155.375C50.5996 155.465 51.1094 155.74 51.4727 156.201C51.8398 156.662 52.0234 157.293 52.0234 158.094H50.9453C50.9453 157.543 50.8145 157.105 50.5527 156.781C50.291 156.457 49.9375 156.295 49.4922 156.295C49.0273 156.295 48.6719 156.416 48.4258 156.658C48.1797 156.896 48.0566 157.23 48.0566 157.66C48.0566 158.059 48.1855 158.377 48.4434 158.615C48.7051 158.85 49.1328 159.064 49.7266 159.26C50.3242 159.451 50.7891 159.664 51.1211 159.898C51.457 160.129 51.7031 160.398 51.8594 160.707C52.0195 161.016 52.0996 161.377 52.0996 161.791C52.0996 162.451 51.9004 162.982 51.502 163.385C51.1074 163.787 50.5527 164.025 49.8379 164.1V165.219H48.9707V164.1C48.2441 164.033 47.6738 163.775 47.2598 163.326C46.8496 162.873 46.6445 162.26 46.6445 161.486H47.7285C47.7285 162.029 47.8711 162.447 48.1562 162.74C48.4414 163.033 48.8457 163.18 49.3691 163.18C49.8809 163.18 50.2832 163.057 50.5762 162.811C50.8691 162.564 51.0156 162.229 51.0156 161.803ZM58.0234 161.135H59.207V162.02H58.0234V164H56.9336V162.02H53.0488V161.381L56.8691 155.469H58.0234V161.135ZM54.2793 161.135H56.9336V156.951L56.8047 157.186L54.2793 161.135ZM61.9199 155.469L64.709 162.43L67.498 155.469H68.957V164H67.832V160.678L67.9375 157.092L65.1367 164H64.2754L61.4805 157.109L61.5918 160.678V164H60.4668V155.469H61.9199Z" fill="#333333"/>
<path d="M51.0156 205.303C51.0156 204.943 50.8887 204.641 50.6348 204.395C50.3848 204.148 49.9609 203.926 49.3633 203.727C48.5312 203.473 47.9238 203.143 47.541 202.736C47.1621 202.326 46.9727 201.807 46.9727 201.178C46.9727 200.537 47.1582 200.012 47.5293 199.602C47.9043 199.191 48.418 198.947 49.0703 198.869V197.586H49.9434V198.875C50.5996 198.965 51.1094 199.24 51.4727 199.701C51.8398 200.162 52.0234 200.793 52.0234 201.594H50.9453C50.9453 201.043 50.8145 200.605 50.5527 200.281C50.291 199.957 49.9375 199.795 49.4922 199.795C49.0273 199.795 48.6719 199.916 48.4258 200.158C48.1797 200.396 48.0566 200.73 48.0566 201.16C48.0566 201.559 48.1855 201.877 48.4434 202.115C48.7051 202.35 49.1328 202.564 49.7266 202.76C50.3242 202.951 50.7891 203.164 51.1211 203.398C51.457 203.629 51.7031 203.898 51.8594 204.207C52.0195 204.516 52.0996 204.877 52.0996 205.291C52.0996 205.951 51.9004 206.482 51.502 206.885C51.1074 207.287 50.5527 207.525 49.8379 207.6V208.719H48.9707V207.6C48.2441 207.533 47.6738 207.275 47.2598 206.826C46.8496 206.373 46.6445 205.76 46.6445 204.986H47.7285C47.7285 205.529 47.8711 205.947 48.1562 206.24C48.4414 206.533 48.8457 206.68 49.3691 206.68C49.8809 206.68 50.2832 206.557 50.5762 206.311C50.8691 206.064 51.0156 205.729 51.0156 205.303ZM55.0234 202.707H55.8379C56.3496 202.699 56.752 202.564 57.0449 202.303C57.3379 202.041 57.4844 201.688 57.4844 201.242C57.4844 200.242 56.9863 199.742 55.9902 199.742C55.5215 199.742 55.1465 199.877 54.8652 200.146C54.5879 200.412 54.4492 200.766 54.4492 201.207H53.3652C53.3652 200.531 53.6113 199.971 54.1035 199.525C54.5996 199.076 55.2285 198.852 55.9902 198.852C56.7949 198.852 57.4258 199.064 57.8828 199.49C58.3398 199.916 58.5684 200.508 58.5684 201.266C58.5684 201.637 58.4473 201.996 58.2051 202.344C57.9668 202.691 57.6406 202.951 57.2266 203.123C57.6953 203.271 58.0566 203.518 58.3105 203.861C58.5684 204.205 58.6973 204.625 58.6973 205.121C58.6973 205.887 58.4473 206.494 57.9473 206.943C57.4473 207.393 56.7969 207.617 55.9961 207.617C55.1953 207.617 54.543 207.4 54.0391 206.967C53.5391 206.533 53.2891 205.961 53.2891 205.25H54.3789C54.3789 205.699 54.5254 206.059 54.8184 206.328C55.1113 206.598 55.5039 206.732 55.9961 206.732C56.5195 206.732 56.9199 206.596 57.1973 206.322C57.4746 206.049 57.6133 205.656 57.6133 205.145C57.6133 204.648 57.4609 204.268 57.1562 204.002C56.8516 203.736 56.4121 203.6 55.8379 203.592H55.0234V202.707ZM61.9199 198.969L64.709 205.93L67.498 198.969H68.957V207.5H67.832V204.178L67.9375 200.592L65.1367 207.5H64.2754L61.4805 200.609L61.5918 204.178V207.5H60.4668V198.969H61.9199Z" fill="#333333"/>
<path d="M51.0156 248.803C51.0156 248.443 50.8887 248.141 50.6348 247.895C50.3848 247.648 49.9609 247.426 49.3633 247.227C48.5312 246.973 47.9238 246.643 47.541 246.236C47.1621 245.826 46.9727 245.307 46.9727 244.678C46.9727 244.037 47.1582 243.512 47.5293 243.102C47.9043 242.691 48.418 242.447 49.0703 242.369V241.086H49.9434V242.375C50.5996 242.465 51.1094 242.74 51.4727 243.201C51.8398 243.662 52.0234 244.293 52.0234 245.094H50.9453C50.9453 244.543 50.8145 244.105 50.5527 243.781C50.291 243.457 49.9375 243.295 49.4922 243.295C49.0273 243.295 48.6719 243.416 48.4258 243.658C48.1797 243.896 48.0566 244.23 48.0566 244.66C48.0566 245.059 48.1855 245.377 48.4434 245.615C48.7051 245.85 49.1328 246.064 49.7266 246.26C50.3242 246.451 50.7891 246.664 51.1211 246.898C51.457 247.129 51.7031 247.398 51.8594 247.707C52.0195 248.016 52.0996 248.377 52.0996 248.791C52.0996 249.451 51.9004 249.982 51.502 250.385C51.1074 250.787 50.5527 251.025 49.8379 251.1V252.219H48.9707V251.1C48.2441 251.033 47.6738 250.775 47.2598 250.326C46.8496 249.873 46.6445 249.26 46.6445 248.486H47.7285C47.7285 249.029 47.8711 249.447 48.1562 249.74C48.4414 250.033 48.8457 250.18 49.3691 250.18C49.8809 250.18 50.2832 250.057 50.5762 249.811C50.8691 249.564 51.0156 249.229 51.0156 248.803ZM59.0371 251H53.4473V250.221L56.4004 246.939C56.8379 246.443 57.1387 246.041 57.3027 245.732C57.4707 245.42 57.5547 245.098 57.5547 244.766C57.5547 244.32 57.4199 243.955 57.1504 243.67C56.8809 243.385 56.5215 243.242 56.0723 243.242C55.5332 243.242 55.1133 243.396 54.8125 243.705C54.5156 244.01 54.3672 244.436 54.3672 244.982H53.2832C53.2832 244.197 53.5352 243.562 54.0391 243.078C54.5469 242.594 55.2246 242.352 56.0723 242.352C56.8652 242.352 57.4922 242.561 57.9531 242.979C58.4141 243.393 58.6445 243.945 58.6445 244.637C58.6445 245.477 58.1094 246.477 57.0391 247.637L54.7539 250.115H59.0371V251ZM61.9199 242.469L64.709 249.43L67.498 242.469H68.957V251H67.832V247.678L67.9375 244.092L65.1367 251H64.2754L61.4805 244.109L61.5918 247.678V251H60.4668V242.469H61.9199Z" fill="#333333"/>
<path d="M51.0156 292.303C51.0156 291.943 50.8887 291.641 50.6348 291.395C50.3848 291.148 49.9609 290.926 49.3633 290.727C48.5312 290.473 47.9238 290.143 47.541 289.736C47.1621 289.326 46.9727 288.807 46.9727 288.178C46.9727 287.537 47.1582 287.012 47.5293 286.602C47.9043 286.191 48.418 285.947 49.0703 285.869V284.586H49.9434V285.875C50.5996 285.965 51.1094 286.24 51.4727 286.701C51.8398 287.162 52.0234 287.793 52.0234 288.594H50.9453C50.9453 288.043 50.8145 287.605 50.5527 287.281C50.291 286.957 49.9375 286.795 49.4922 286.795C49.0273 286.795 48.6719 286.916 48.4258 287.158C48.1797 287.396 48.0566 287.73 48.0566 288.16C48.0566 288.559 48.1855 288.877 48.4434 289.115C48.7051 289.35 49.1328 289.564 49.7266 289.76C50.3242 289.951 50.7891 290.164 51.1211 290.398C51.457 290.629 51.7031 290.898 51.8594 291.207C52.0195 291.516 52.0996 291.877 52.0996 292.291C52.0996 292.951 51.9004 293.482 51.502 293.885C51.1074 294.287 50.5527 294.525 49.8379 294.6V295.719H48.9707V294.6C48.2441 294.533 47.6738 294.275 47.2598 293.826C46.8496 293.373 46.6445 292.76 46.6445 291.986H47.7285C47.7285 292.529 47.8711 292.947 48.1562 293.24C48.4414 293.533 48.8457 293.68 49.3691 293.68C49.8809 293.68 50.2832 293.557 50.5762 293.311C50.8691 293.064 51.0156 292.729 51.0156 292.303ZM57.0098 294.5H55.9199V287.275L53.7344 288.078V287.094L56.8398 285.928H57.0098V294.5ZM61.9199 285.969L64.709 292.93L67.498 285.969H68.957V294.5H67.832V291.178L67.9375 287.592L65.1367 294.5H64.2754L61.4805 287.609L61.5918 291.178V294.5H60.4668V285.969H61.9199Z" fill="#333333"/>
<defs>
<linearGradient id="paint0_linear_5_5513" x1="254.373" y1="56.5254" x2="254.373" y2="340.5" gradientUnits="userSpaceOnUse">
<stop stop-color="#75C696"/>
<stop offset="1" stop-color="#75C696" stop-opacity="0"/>
</linearGradient>
<clipPath id="clip0_5_5513">
<rect width="470" height="283.975" fill="white" transform="matrix(-1 0 0 1 570 56.5254)"/>
</clipPath>
<clipPath id="clip1_5_5513">
<rect width="470" height="284.109" fill="white" transform="matrix(-1 0 0 1 570 56.3906)"/>
</clipPath>
</defs>
</svg>
